<?xml version="1.0" encoding="UTF-8" standalone="no"?>
<!DOCTYPE svg PUBLIC "-//W3C//DTD SVG 1.1//EN" "http://www.w3.org/Graphics/SVG/1.1/DTD/svg11.dtd">
<svg version="1.1" xmlns="http://www.w3.org/2000/svg" xmlns:xlink="http://www.w3.org/1999/xlink" preserveAspectRatio="xMidYMid meet" viewBox="0 0 640 640" width="640" height="640"><defs><path d="M609.77 0.14L611.1 0.32L612.41 0.56L613.71 0.87L614.99 1.25L616.24 1.69L617.48 2.19L618.7 2.75L619.89 3.37L621.06 4.06L622.21 4.79L623.33 5.59L624.42 6.43L625.49 7.33L626.52 8.28L627.53 9.29L628.51 10.34L629.45 11.43L630.36 12.58L631.24 13.76L632.08 14.99L632.88 16.27L633.65 17.58L634.38 18.93L635.07 20.32L635.72 21.74L636.33 23.2L636.89 24.69L637.41 26.22L637.89 27.78L638.32 29.36L638.71 30.97L639.04 32.61L639.33 34.28L639.57 35.96L639.76 37.67L639.89 39.4L639.97 41.15L640 42.92L640 441.62L639.95 444.52L639.82 447.4L639.6 450.25L639.29 453.06L638.9 455.83L638.43 458.57L637.87 461.26L637.24 463.91L636.53 466.52L635.74 469.07L634.89 471.58L633.95 474.03L632.95 476.43L631.89 478.77L630.75 481.05L629.55 483.27L628.29 485.43L626.96 487.52L625.58 489.54L624.14 491.49L622.64 493.36L621.08 495.17L619.48 496.89L617.82 498.53L616.12 500.1L614.37 501.57L612.57 502.97L610.72 504.27L608.84 505.48L606.91 506.6L604.95 507.62L602.95 508.54L600.91 509.37L598.84 510.09L596.74 510.7L594.61 511.21L592.45 511.61L590.26 511.9L588.05 512.08L585.82 512.14L252.85 512.14L256.91 640L128.43 533.91L0 427.82L121.31 308.32L242.62 188.88L246.66 316.75L505.4 316.75L505.4 42.92L505.42 41.15L505.51 39.4L505.64 37.67L505.83 35.96L506.07 34.28L506.35 32.61L506.69 30.97L507.08 29.36L507.51 27.78L507.99 26.22L508.51 24.69L509.08 23.2L509.69 21.74L510.34 20.32L511.03 18.93L511.76 17.58L512.53 16.27L513.34 14.99L514.18 13.76L515.06 12.58L515.97 11.43L516.92 10.34L517.89 9.29L518.9 8.28L519.94 7.33L521.01 6.43L522.1 5.59L523.22 4.79L524.37 4.06L525.54 3.37L526.74 2.75L527.95 2.19L529.19 1.69L530.45 1.25L531.73 0.87L533.03 0.56L534.34 0.32L535.67 0.14L537.01 0.04L538.37 0L607.07 0L608.42 0.04L609.77 0.14Z" id="d1NItrAKcT"></path></defs><g><g><g><use xlink:href="#d1NItrAKcT" opacity="1" fill="#000000" fill-opacity="1"></use><g><use xlink:href="#d1NItrAKcT" opacity="1" fill-opacity="0" stroke="#000000" stroke-width="1" stroke-opacity="0"></use></g></g></g></g></svg>