<?xml version="1.0" encoding="UTF-8" standalone="no"?>
<!DOCTYPE svg PUBLIC "-//W3C//DTD SVG 1.1//EN" "http://www.w3.org/Graphics/SVG/1.1/DTD/svg11.dtd">
<svg version="1.1" xmlns="http://www.w3.org/2000/svg" xmlns:xlink="http://www.w3.org/1999/xlink" preserveAspectRatio="xMidYMid meet" viewBox="0 0 640 640" width="640" height="640"><defs><path d="M309.91 296.71C316.8 296.71 322.38 302.29 322.38 309.18C322.38 313.59 322.38 314.37 322.38 318.79C322.38 325.68 316.8 331.26 309.91 331.26C288.28 331.26 235.88 331.26 214.25 331.26C207.36 331.26 201.78 325.68 201.78 318.79C201.78 314.37 201.78 313.59 201.78 309.18C201.78 302.29 207.36 296.71 214.25 296.71C235.88 296.71 288.28 296.71 309.91 296.71Z" id="h3ZdhhtHtM"></path><path d="M314.8 240.7C318.99 240.7 322.38 244.1 322.38 248.29C322.38 263.69 322.38 302.32 322.38 317.72C322.38 321.91 318.99 325.3 314.8 325.3C310.12 325.3 303.67 325.3 298.99 325.3C294.8 325.3 291.4 321.91 291.4 317.72C291.4 302.32 291.4 263.69 291.4 248.29C291.4 244.1 294.8 240.7 298.99 240.7C303.67 240.7 310.12 240.7 314.8 240.7Z" id="aj0h25d5P"></path><path d="M203 295.22L230.92 274.1L232.56 313.98L234.21 353.87L204.64 335.11L175.08 316.35L203 295.22Z" id="c5GRoFkNa9"></path></defs><g><g><g><use xlink:href="#h3ZdhhtHtM" opacity="1" fill="#000000" fill-opacity="1"></use></g><g><use xlink:href="#aj0h25d5P" opacity="1" fill="#000000" fill-opacity="1"></use></g><g><use xlink:href="#c5GRoFkNa9" opacity="1" fill="#000000" fill-opacity="1"></use></g></g></g></svg>